# xmcd CD database file
#
# Track frame offsets:
#	150
#	15312
#	44169
#	106451
#	137127
#	192052
#
# Disc length: 2956 seconds
#
# Revision: 0
# Processed by: cddbd v1.4PL0 Copyright (c) Steve Scherf et al.
# Submitted via: CDex 1.51
#
DISCID=4c0b8a06
DTITLE=The Dace Brubeck Quartett - At Carnegie Hall - Part 2
DYEAR=1963
DGENRE=Jazz
TTITLE0=Eleven-Four
TTITLE1=King For A Day
TTITLE2=Castilian Drums
TTITLE3=It's A Raggy Waltz
TTITLE4=Blue Rondo A La Turk
TTITLE5=Take Five
EXTD=YEAR: 1963
EXTT0=
EXTT1=
EXTT2=
EXTT3=
EXTT4=
EXTT5=
PLAYORDER=
